# xmcd CD database file
#
# Track frame offsets:
#	150
#	29721
#	109673
#	138578
#	183604
#	234799
#	268497
#	301140
#
# Disc length: 4520 seconds
#
# Revision: 1
# Processed by: cddbd v1.5.2PL0 Copyright (c) Steve Scherf et al.
# Submitted via: CDex 1.51
#
DISCID=7011a608
DTITLE=Combos Thewes, Döling, von Eichel, Brodersen - Jazz Workshop Sulzbach 2007, CD1
DYEAR=2007
DGENRE=Jazz
TTITLE0=Seven Steps to Heaven
TTITLE1=Caligari - How Insensitive
TTITLE2=Cheek To Cheek
TTITLE3=Nature Boy
TTITLE4=Mercy, Mercy, Mercy
TTITLE5=Autumn Leaves
TTITLE6=Bumpin'
TTITLE7=I Get a Kick Out of You
EXTD=YEAR: 2007
EXTT0=
EXTT1=
EXTT2=
EXTT3=
EXTT4=
EXTT5=
EXTT6=
EXTT7=
PLAYORDER=
